# xmcd
#
# Track frame offsets: 
#        150
#        13697
#        27675
#        40805
#        58646
#        87993
#        111428
#        130126
#        148011
#
# Disc length: 2195 seconds
#
# Revision: 0
# Processed by: cddbd v1.5.2PL0 Copyright (c) Steve Scherf et al.
# Submitted via: ExactAudioCopy v0.99pb4
#
DISCID=7e089109
DTITLE=Michael Henderson - Solid
DYEAR=1976
DGENRE=R&B
TTITLE0=Make Me Feel Better
TTITLE1=Time
TTITLE2=Let Love Enter
TTITLE3=Treat Me Like A Man
TTITLE4=Solid
TTITLE5=Be My Girl
TTITLE6=You Haven't Made It To The Top
TTITLE7=Valentine Love
TTITLE8=Stay With Me This Summer
EXTD=
EXTT0=
EXTT1=
EXTT2=
EXTT3=
EXTT4=
EXTT5=
EXTT6=
EXTT7=
EXTT8=
PLAYORDER=
